HIERARCHY
ROOT Hips
{
  OFFSET 17.062 93.0766 -247.583
  CHANNELS 6 Xposition Yposition Zposition Zrotation Xrotation Yrotation
  JOINT ToSpine
  {
    OFFSET -0.0105055 1.38907 -7.13956
    CHANNELS 3 Zrotation Xrotation Yrotation
    JOINT Spine
    {
      OFFSET 0.0105055 10 1
      CHANNELS 3 Zrotation Xrotation Yrotation
      JOINT Spine1
      {
        OFFSET 0 12 1.60637
        CHANNELS 3 Zrotation Xrotation Yrotation
        JOINT Neck
        {
          OFFSET 0 27 2.26658
          CHANNELS 3 Zrotation Xrotation Yrotation
          JOINT Head
          {
            OFFSET 0 9 2.12705
            CHANNELS 3 Zrotation Xrotation Yrotation
            End Site
            {
              OFFSET 0 11 2
            }
          }
        }
        JOINT LeftShoulder
        {
          OFFSET 8 19.6109 2.86452
          CHANNELS 3 Zrotation Xrotation Yrotation
          JOINT LeftArm
          {
            OFFSET 12 1 0.681055
            CHANNELS 3 Zrotation Xrotation Yrotation
            JOINT LeftForeArm
            {
              OFFSET 19 0 -1.52608
              CHANNELS 3 Zrotation Xrotation Yrotation
              JOINT LeftHand
              {
                OFFSET 23 0 0
                CHANNELS 3 Zrotation Xrotation Yrotation
                End Site
                {
                  OFFSET 10 0 0
                }
              }
            }
          }
        }
        JOINT RightShoulder
        {
          OFFSET -8 19.6109 2.86452
          CHANNELS 3 Zrotation Xrotation Yrotation
          JOINT RightArm
          {
            OFFSET -12 1 0.681055
            CHANNELS 3 Zrotation Xrotation Yrotation
            JOINT RightForeArm
            {
              OFFSET -19 0 -1.52608
              CHANNELS 3 Zrotation Xrotation Yrotation
              JOINT RightHand
              {
                OFFSET -23 0 0
                CHANNELS 3 Zrotation Xrotation Yrotation
                End Site
                {
                  OFFSET -10 0 0
                }
              }
            }
          }
        }
      }
    }
  }
  JOINT LeftUpLeg
  {
    OFFSET 9 -7.17245 0
    CHANNELS 3 Zrotation Xrotation Yrotation
    JOINT LeftLeg
    {
      OFFSET 0 -44.1113 0
      CHANNELS 3 Zrotation Xrotation Yrotation
      JOINT LeftFoot
      {
        OFFSET 0 -36.1829 0
        CHANNELS 3 Zrotation Xrotation Yrotation
        JOINT LeftToeBase
        {
          OFFSET 0 -4.84184 13
          CHANNELS 3 Zrotation Xrotation Yrotation
          End Site
          {
            OFFSET 0 1 6
          }
        }
      }
    }
  }
  JOINT RightUpLeg
  {
    OFFSET -9 -7.17245 0
    CHANNELS 3 Zrotation Xrotation Yrotation
    JOINT RightLeg
    {
      OFFSET 0 -44.0551 0
      CHANNELS 3 Zrotation Xrotation Yrotation
      JOINT RightFoot
      {
        OFFSET 0 -36.1469 0
        CHANNELS 3 Zrotation Xrotation Yrotation
        JOINT RightToeBase
        {
          OFFSET 0 -4.92256 13
          CHANNELS 3 Zrotation Xrotation Yrotation
          End Site
          {
            OFFSET 0 1 6
          }
        }
      }
    }
  }
}
MOTION
Frames:	15
Frame Time:	0.0333333
46.2577 82.8642 12.2374 -7.36694 -5.60561 75.2213 0 0 0 14.0024 14.4186 -3.63254 3.92742 -1.56219 -3.13317 2.75319 -9.43934 27.6972 -13.9248 0.302283 30.1372 -30.3636 3.50196 -6.09284 -37.1661 16.1999 4.74804 15.1866 7.6682 -63.8222 -0.413053 0.0238587 -6.61165 24.8135 4.88403 12.1508 37.3968 3.53436 6.73112 -11.0893 5.31622 64.699 3.62991 0.252937 7.96935 -10.6822 -21.8957 31.1067 4.08828e-008 56.9299 -22.0929 31.7282 -28.6626 8.30498 5.18734 0.880941 -21.2952 -11.0449 -21.447 12.4286 -180 87.6706 166.991 -36.0224 -18.0616 -5.91631 3.98476 -14.9195 -3.66806 
49.2127 82.9741 12.9172 -8.12047 -5.55593 82.6165 0 0 0 13.3184 12.9807 -5.15402 4.63325 -0.679921 -5.0729 2.35085 -11.2167 28.084 -12.9292 -0.453936 30.0097 -30.1318 3.59109 -6.39799 -32.3295 12.5858 -5.33694 16.1783 6.15477 -69.7178 -1.08564 0.0629524 -6.63711 24.8914 4.45727 10.7624 38.2957 -2.14979 -3.75896 -11.495 6.1163 62.3488 4.43047 0.284727 7.35055 -11.7213 -17.6282 28.5859 -1.42691e-006 54.4904 -26.5738 35.6809 -28.7234 9.42174 5.54363 -0.489442 -23.4333 -9.26721 -27.9844 15.7696 -180 79.8831 162.098 -38.5769 -22.1008 -7.81979 4.12532 -15.6999 -6.51469 
52.5166 82.6684 13.6955 -8.4487 -5.73257 90.0136 0 0 0 11.1191 11.4433 -6.62553 6.57748 1.83373 -7.44654 4.19103 -14.1782 28.2177 -13.6957 -0.618561 30.32 -28.3625 3.69911 -7.20563 -27.8638 7.44926 -15.5574 14.8925 3.72899 -76.2577 -1.0795 0.0616082 -6.53259 25.0823 4.27367 10.1007 38.6644 -6.93925 -13.7577 -10.4048 6.18174 59.6111 4.24349 0.274513 7.3993 -11.6879 -13.4639 25.6564 2.56008e-008 53.9816 -30.541 36.0736 -30.7837 10.245 6.32516 3.21584 -24.5705 -8.32686 -35.82 16.7628 -180 75.5877 162.95 -40.318 -23.5634 -8.75742 4.65031 -18.0053 -5.87004 
56.2896 82.3581 14.3824 -7.83084 -6.8905 97.576 0 0 0 9.21376 11.7357 -7.97382 9.86919 3.25262 -9.71704 5.10719 -16.5517 27.7022 -13.8442 -1.1193 29.7143 -26.0949 3.90112 -8.55153 -23.0502 0.762165 -25.3052 14.0405 1.60125 -83.6243 -2.39129 0.11989 -5.73954 24.0166 4.08686 9.94459 39.7185 -11.9771 -24.8904 -9.92761 5.92591 59.4648 3.74153 0.246556 7.53769 -10.492 -8.94978 20.539 -1.08212e-006 53.8021 -31.712 37.2607 -32.1837 11.1096 6.93676 1.74712 -27.713 -7.04778 -43.7358 15.7359 180 75.5322 165.985 -35.9057 -26.4071 -8.6942 3.99273 -15.1072 -6.9485 
60.7707 81.9867 14.4326 -7.8694 -8.13946 103.164 0 0 0 8.04134 13.1908 -9.42943 11.7432 1.277 -11.3084 7.78086 -16.8356 27.5926 -14.678 -0.454066 30.161 -23.111 3.65615 -8.88708 -19.3109 -5.81881 -31.9539 14.1437 0.0647673 -89.743 -1.80535 0.0981789 -6.22509 24.0451 4.06365 9.85695 39.825 -14.3983 -35.5453 -8.76319 5.08313 60.111 4.08605 0.32722 9.15338 -9.06862 -4.539 15.8119 -3.10442e-008 51.8048 -33.1457 35.2812 -33.1604 10.8173 6.17868 0.746512 -25.3425 -7.03878 -52.28 13.2727 180 80.3319 169.869 -30.3234 -29.4596 -8.14974 3.75734 -13.9848 -5.91202 
66.3281 81.9696 13.552 -8.13859 -9.70787 106.278 0 0 0 7.14305 12.9012 -10.4098 14.1224 0.733133 -12.5309 7.4368 -17.6762 27.8889 -13.9038 0.0843712 30.151 -20.8275 3.39019 -8.8927 -18.3266 -12.2382 -37.6698 12.5644 -0.867084 -93.8843 -0.0724866 0.00296338 -4.68211 23.2067 3.75599 9.18406 40.58 -13.9444 -42.4882 -6.95467 3.57841 62.9024 3.27395 0.228499 7.98258 -7.18948 0.563616 13.2135 -4.9151e-007 47.1055 -35.5238 31.1105 -30.4071 8.65216 5.26431 -2.95918 -23.6241 -6.5199 -58.6451 10.6555 2.00602e-005 89.6138 -5.46028 -25.5116 -29.7255 -6.87623 3.5184 -12.8285 -7.35556 
72.7489 82.4682 11.5046 -8.53768 -10.9007 107.136 0 0 0 6.10328 11.4152 -10.6008 16.6799 1.58141 -13.1419 6.87548 -19.0608 28.2263 -13.5871 0.852605 30.1979 -17.5762 3.03821 -8.99164 -23.3241 -15.5633 -40.3858 12.1031 -1.81863 -98.4184 0.0200696 -0.000837189 -4.77735 24.3207 3.95731 9.39913 38.0217 -11.9205 -47.5392 -7.49271 3.35356 66.022 3.93116 0.291232 8.47052 -7.51755 6.51969 9.38845 7.0392e-007 38.9517 -31.3305 26.1303 -24.0562 5.66149 4.83885 -8.9426 -25.8931 -5.29072 -61.2834 9.71298 -6.67756e-007 76.5293 4.06681 -11.5492 -30.909 -3.20302 1.89593 -6.59612 -2.07111 
79.8271 82.7902 8.79173 -8.8014 -11.6879 107.028 0 0 0 6.30007 10.6922 -10.6768 17.2373 0.381094 -12.6818 6.30999 -19.5337 28.2094 -12.9596 1.94605 29.985 -17.5545 2.90586 -8.46094 -25.7509 -12.9682 -40.6286 12.059 -2.71051 -102.482 0.31598 -0.0131358 -4.761 22.6242 3.87003 9.81323 38.071 -8.35367 -48.1897 -9.93878 3.98023 68.39 5.44358 0.364169 7.64892 -8.23045 10.8642 5.16106 -0.00649479 33.7213 -26.0472 17.6393 -11.9099 1.85445 3.85614 -16.9004 -28.9479 -3.15299 -59.5352 8.00109 6.34562e-007 63.2122 12.4893 -21.9582 -26.9196 -5.31688 3.84755 -14.4167 -6.89097 
86.0899 83.7353 5.99192 -8.69445 -12.6478 106.099 0 0 0 7.34989 10.7856 -9.8677 16.6924 -0.242513 -11.6857 7.00752 -19.572 28.1403 -12.2338 2.74978 29.8654 -20.1023 3.04779 -7.93142 -27.0414 -5.66298 -37.6811 15.3327 -4.32344 -105.374 0.57415 -0.0260382 -5.19322 24.0708 4.65458 11.7681 34.886 -4.53299 -46.9696 -12.6666 4.16036 72.11 5.22442 0.375207 8.20998 -7.87734 10.821 4.06022 -7.23388e-007 36.2015 -24.4329 12.3015 -0.0977245 0.0105313 2.74403 -16.1016 -16.532 0.805028 -55.5717 10.0301 1.5152e-007 53.5906 18.3739 -18.3806 -18.8686 -3.07992 4.05303 -15.8362 -12.1401 
91.6515 83.111 3.99106 -8.48489 -12.1456 105.772 0 0 0 6.92006 12.3666 -8.80829 14.7851 -1.84861 -10.0495 7.1409 -21.1708 27.8744 -10.9597 3.33861 29.1449 -24.0019 3.53131 -8.13412 -29.3049 3.52047 -30.1948 18.2457 -5.29793 -105.647 -0.848636 0.0522527 -7.04667 22.4087 4.82577 13.18 34.6622 -3.04289 -39.8952 -16.7709 4.97583 73.9436 3.67086 0.267326 8.32746 -7.24862 5.44398 5.17488 2.62234e-007 50.8321 -26.6517 11.8897 7.69279 -0.80225 1.82456 -24.6421 -5.53529 2.52898 -52.5249 17.5089 -9.23725e-007 56.3748 16.2276 -8.60015 -19.2044 -1.4576 4.4595 -16.7479 -2.54297 
96.8777 82.4866 1.93948 -6.98344 -11.7605 106.954 0 0 0 9.33761 14.8978 -7.6236 8.80223 -3.46026 -7.49094 7.66527 -22.0896 25.6675 -10.8079 2.27215 26.9612 -26.3308 3.96988 -8.6773 -34.8319 12.6101 -21.6383 19.2046 -3.94565 -101.175 -2.72795 0.153899 -6.4567 24.5735 5.46698 14.1228 30.7504 -2.41034 -32.1596 -17.9465 4.29351 76.9848 3.59607 0.262035 8.3325 -4.85861 -2.83614 5.906 -4.78303e-006 71.8029 -27.7325 19.3394 5.16783 -0.881122 1.67686 -22.7663 -2.79409 2.40907 -48.3362 19.1151 -6.37546e-007 61.3673 10.6345 -6.3827 -25.1215 -1.42351 3.8424 -14.2788 -0.26176 
101.464 82.4016 -0.242875 -5.59816 -12.7049 108.675 0 0 0 12.5836 16.6839 -6.26108 4.01707 -4.36632 -4.93822 5.6955 -23.0765 23.3845 -9.10184 0.893099 24.1273 -29.926 4.12187 -7.91736 -39.8957 17.6812 -13.6854 19.3164 -0.433462 -91.2364 -4.39267 0.212357 -5.53275 24.4665 5.6239 14.6806 25.4814 -0.273737 -21.1325 -20.6598 3.94209 79.6671 3.44136 0.207989 6.9152 -0.427695 -13.7529 6.41605 -180 89.3009 157.512 21.2985 -0.816153 0.153468 1.67072 -20.7471 -4.34595 0.675998 -43.9032 14.8137 -2.54388e-007 63.1569 11.6456 -5.85298 -30.4217 -1.59269 3.92071 -14.5913 -1.35744 
105.808 82.4113 -2.75382 -4.48638 -13.3611 111.566 0 0 0 14.6393 17.9891 -4.77861 1.00462 -4.49658 -2.74596 3.84241 -23.1086 20.5638 -7.48158 -0.195364 20.9794 -32.8232 4.26032 -7.4289 -44.7232 16.9642 -1.93912 17.8229 1.21974 -86.212 -5.12494 0.282668 -6.30976 22.2049 5.50841 15.6287 20.0087 2.28801 -8.27456 -17.5047 3.34328 79.5238 3.30812 0.202662 7.0094 3.25647 -26.2964 6.92193 -180 75.576 165.076 22.0338 -5.85594 1.14103 1.62025 -19.3754 -4.26112 -2.62987 -38.6856 8.29016 -5.16596e-007 63.1961 13.4515 -9.60681 -33.4037 -2.88868 4.38859 -16.3414 -1.1559 
110.458 82.4392 -5.38284 -4.78368 -12.9391 112.808 0 0 0 15.1007 18.3941 -2.3155 -3.49243 -4.41188 0.596262 3.28357 -24.1135 17.2441 -6.75614 0.650501 17.6585 -31.7999 4.14891 -7.43092 -48.0563 15.918 14.5099 11.61 -0.66729 -93.2443 -7.24589 0.335183 -5.29 18.9835 4.87753 15.4398 14.5553 2.96013 4.00556 -21.087 2.88849 82.5546 4.13845 0.23973 6.62771 7.06214 -39.7924 9.97759 180 68.7915 169.242 25.1282 -9.70361 2.16756 1.61651 -19.0244 -4.36754 -4.87076 -33.8882 6.24692 -1.90442e-007 62.6403 13.2154 -9.24979 -37.8249 -3.17525 4.54333 -16.8105 -0.12362 
115.082 82.5792 -8.98328 -4.65674 -12.329 115.184 0 0 0 16.5824 19.905 -0.395879 -7.33599 -5.69985 3.50695 1.31607 -23.3717 12.9357 -6.24407 0.151647 13.4458 -29.7841 3.90867 -7.37174 -47.759 17.2401 28.9025 13.2128 -2.76603 -101.615 -8.58421 0.453182 -6.03271 14.1012 3.83423 14.5784 11.7958 1.084 14.3848 -20.2201 1.06932 87.0994 5.87637 0.330288 6.42836 9.91302 -51.4558 12.3661 -180 69.8598 170.756 26.7525 -12.6964 3.03084 1.70775 -21.5507 -4.55995 -7.99171 -26.9982 2.62923 5.42681e-007 59.6699 12.5876 -11.3609 -40.5077 -4.20402 4.77371 -17.4803 1.12889 
